<svg xmlns="http://www.w3.org/2000/svg" viewBox="0 0 256 256">
  <defs>
    <linearGradient id="shell" x1="44" y1="26" x2="210" y2="226" gradientUnits="userSpaceOnUse">
      <stop offset="0" stop-color="#1f2933"/>
      <stop offset="1" stop-color="#111820"/>
    </linearGradient>
    <linearGradient id="bubbleA" x1="51" y1="55" x2="178" y2="172" gradientUnits="userSpaceOnUse">
      <stop offset="0" stop-color="#43c6ac"/>
      <stop offset="1" stop-color="#0a84ff"/>
    </linearGradient>
    <linearGradient id="bubbleB" x1="89" y1="93" x2="207" y2="194" gradientUnits="userSpaceOnUse">
      <stop offset="0" stop-color="#e8f3ff"/>
      <stop offset="1" stop-color="#93c5fd"/>
    </linearGradient>
  </defs>
  <rect x="16" y="16" width="224" height="224" rx="48" fill="url(#shell)"/>
  <rect x="16" y="16" width="224" height="224" rx="48" fill="none" stroke="#35414d" stroke-width="4"/>
  <path d="M58 69c0-18 15-33 33-33h50c27 0 49 22 49 49v16c0 27-22 49-49 49h-30l-42 34c-6 5-15 0-13-8l9-34c-5-8-7-17-7-27V69z" fill="url(#bubbleA)"/>
  <path d="M82 86c0-9 7-16 16-16h51c9 0 16 7 16 16s-7 16-16 16H98c-9 0-16-7-16-16z" fill="#ffffff" opacity=".92"/>
  <path d="M82 123c0-8 6-14 14-14h34c8 0 14 6 14 14s-6 14-14 14H96c-8 0-14-6-14-14z" fill="#ffffff" opacity=".82"/>
  <path d="M99 119c0-23 19-42 42-42h18c28 0 51 23 51 51v12c0 28-23 51-51 51h-12l-37 28c-6 5-15-1-12-9l9-27c-5-8-8-18-8-29v-35z" fill="url(#bubbleB)" opacity=".96"/>
  <circle cx="137" cy="137" r="11" fill="#17202a"/>
  <circle cx="164" cy="137" r="11" fill="#17202a"/>
  <circle cx="191" cy="137" r="11" fill="#17202a"/>
  <path d="M64 57h30M44 95h25M186 191h21" stroke="#43c6ac" stroke-width="8" stroke-linecap="round" opacity=".9"/>
</svg>
